HIERARCHY
ROOT Hips
{
    OFFSET   0.000000   0.000000   0.000000
    CHANNELS 6 Xposition Yposition Zposition Zrotation Xrotation Yrotation
    JOINT Chest
    {
        OFFSET   0.000000   8.007230   0.000000
        CHANNELS 3 Zrotation Xrotation Yrotation
        JOINT Chest2
        {
            OFFSET   0.000000  22.077100   0.000000
            CHANNELS 3 Zrotation Xrotation Yrotation
            JOINT Neck
            {
                OFFSET   0.000000  23.254800   0.000000
                CHANNELS 3 Zrotation Xrotation Yrotation
                JOINT Head
                {
                    OFFSET   0.000010  14.370000   1.956600
                    CHANNELS 3 Zrotation Xrotation Yrotation
                    End Site
                    {
                        OFFSET   0.000000  19.566000   0.000000
                    }
                }
            }
            JOINT LeftCollar
            {
                OFFSET   3.911900  19.017000  -0.467062
                CHANNELS 3 Zrotation Xrotation Yrotation
                JOINT LeftShoulder
                {
                    OFFSET  10.383700   0.000000   0.000000
                    CHANNELS 3 Zrotation Xrotation Yrotation
                    JOINT LeftElbow
                    {
                        OFFSET  26.662100   0.001193   0.000835
                        CHANNELS 3 Zrotation Xrotation Yrotation
                        JOINT LeftWrist
                        {
                            OFFSET  28.869000  -0.000058  -0.000075
                            CHANNELS 3 Zrotation Xrotation Yrotation
                            JOINT LeftFinger0
                            {
                                OFFSET   2.044660  -2.323460   3.252850
                                CHANNELS 3 Zrotation Xrotation Yrotation
                                JOINT LeftFinger01
                                {
                                    OFFSET   3.088130   0.000000   0.000000
                                    CHANNELS 3 Zrotation Xrotation Yrotation
                                    JOINT LeftFinger02
                                    {
                                        OFFSET   2.639450   0.000000   0.000000
                                        CHANNELS 3 Zrotation Xrotation Yrotation
                                        End Site
                                        {
                                            OFFSET   2.582190   0.000000   0.000000
                                        }
                                    }
                                }
                            }
                            JOINT LeftFinger1
                            {
                                OFFSET   8.364480   0.000000   3.252850
                                CHANNELS 3 Zrotation Xrotation Yrotation
                                JOINT LeftFinger11
                                {
                                    OFFSET   4.646920   0.000000   0.000000
                                    CHANNELS 3 Zrotation Xrotation Yrotation
                                    JOINT LeftFinger12
                                    {
                                        OFFSET   2.323460   0.000000   0.000000
                                        CHANNELS 3 Zrotation Xrotation Yrotation
                                        End Site
                                        {
                                            OFFSET   2.273050   0.000000   0.000000
                                        }
                                    }
                                }
                            }
                            JOINT LeftFinger2
                            {
                                OFFSET   8.364490   0.000016   1.078090
                                CHANNELS 3 Zrotation Xrotation Yrotation
                                JOINT LeftFinger21
                                {
                                    OFFSET   5.111620   0.000000   0.000000
                                    CHANNELS 3 Zrotation Xrotation Yrotation
                                    JOINT LeftFinger22
                                    {
                                        OFFSET   2.788150   0.000012   0.000000
                                        CHANNELS 3 Zrotation Xrotation Yrotation
                                        End Site
                                        {
                                            OFFSET   2.727660   0.000000   0.000000
                                        }
                                    }
                                }
                            }
                            JOINT LeftFinger3
                            {
                                OFFSET   7.899780   0.000014  -1.078090
                                CHANNELS 3 Zrotation Xrotation Yrotation
                                JOINT LeftFinger31
                                {
                                    OFFSET   4.646930   0.000000   0.000000
                                    CHANNELS 3 Zrotation Xrotation Yrotation
                                    JOINT LeftFinger32
                                    {
                                        OFFSET   2.323470   0.000000   0.000000
                                        CHANNELS 3 Zrotation Xrotation Yrotation
                                        End Site
                                        {
                                            OFFSET   2.273050   0.000000   0.000000
                                        }
                                    }
                                }
                            }
                            JOINT LeftFinger4
                            {
                                OFFSET   7.435090   0.000000  -3.252850
                                CHANNELS 3 Zrotation Xrotation Yrotation
                                JOINT LeftFinger41
                                {
                                    OFFSET   3.717550   0.000000   0.000000
                                    CHANNELS 3 Zrotation Xrotation Yrotation
                                    JOINT LeftFinger42
                                    {
                                        OFFSET   1.858770   0.000000   0.000000
                                        CHANNELS 3 Zrotation Xrotation Yrotation
                                        End Site
                                        {
                                            OFFSET   1.818440   0.000000   0.000000
                                        }
                                    }
                                }
                            }
                        }
                    }
                }
            }
            JOINT RightCollar
            {
                OFFSET  -3.911900  19.017000  -0.467063
                CHANNELS 3 Zrotation Xrotation Yrotation
                JOINT RightShoulder
                {
                    OFFSET -10.383700   0.000023   0.000000
                    CHANNELS 3 Zrotation Xrotation Yrotation
                    JOINT RightElbow
                    {
                        OFFSET -26.662100   0.001246   0.001011
                        CHANNELS 3 Zrotation Xrotation Yrotation
                        JOINT RightWrist
                        {
                            OFFSET -28.869000  -0.000026  -0.000078
                            CHANNELS 3 Zrotation Xrotation Yrotation
                            JOINT RightFinger0
                            {
                                OFFSET  -2.044660  -2.323490   3.252850
                                CHANNELS 3 Zrotation Xrotation Yrotation
                                JOINT RightFinger01
                                {
                                    OFFSET  -3.088130   0.000000   0.000000
                                    CHANNELS 3 Zrotation Xrotation Yrotation
                                    JOINT RightFinger02
                                    {
                                        OFFSET  -2.639460   0.000000   0.000000
                                        CHANNELS 3 Zrotation Xrotation Yrotation
                                        End Site
                                        {
                                            OFFSET  -2.582190   0.000000   0.000000
                                        }
                                    }
                                }
                            }
                            JOINT RightFinger1
                            {
                                OFFSET  -8.364480   0.000000   3.252850
                                CHANNELS 3 Zrotation Xrotation Yrotation
                                JOINT RightFinger11
                                {
                                    OFFSET  -4.646920   0.000000   0.000000
                                    CHANNELS 3 Zrotation Xrotation Yrotation
                                    JOINT RightFinger12
                                    {
                                        OFFSET  -2.323470   0.000000   0.000000
                                        CHANNELS 3 Zrotation Xrotation Yrotation
                                        End Site
                                        {
                                            OFFSET  -2.273050   0.000000   0.000000
                                        }
                                    }
                                }
                            }
                            JOINT RightFinger2
                            {
                                OFFSET  -8.364480   0.000000   1.078090
                                CHANNELS 3 Zrotation Xrotation Yrotation
                                JOINT RightFinger21
                                {
                                    OFFSET  -5.111620   0.000000   0.000000
                                    CHANNELS 3 Zrotation Xrotation Yrotation
                                    JOINT RightFinger22
                                    {
                                        OFFSET  -2.788160   0.000000   0.000000
                                        CHANNELS 3 Zrotation Xrotation Yrotation
                                        End Site
                                        {
                                            OFFSET  -2.727660   0.000000   0.000000
                                        }
                                    }
                                }
                            }
                            JOINT RightFinger3
                            {
                                OFFSET  -7.899780   0.000000  -1.078090
                                CHANNELS 3 Zrotation Xrotation Yrotation
                                JOINT RightFinger31
                                {
                                    OFFSET  -4.646930   0.000000   0.000000
                                    CHANNELS 3 Zrotation Xrotation Yrotation
                                    JOINT RightFinger32
                                    {
                                        OFFSET  -2.323470   0.000000   0.000000
                                        CHANNELS 3 Zrotation Xrotation Yrotation
                                        End Site
                                        {
                                            OFFSET  -2.273050   0.000000   0.000000
                                        }
                                    }
                                }
                            }
                            JOINT RightFinger4
                            {
                                OFFSET  -7.435090   0.000000  -3.252850
                                CHANNELS 3 Zrotation Xrotation Yrotation
                                JOINT RightFinger41
                                {
                                    OFFSET  -3.717550   0.000000   0.000000
                                    CHANNELS 3 Zrotation Xrotation Yrotation
                                    JOINT RightFinger42
                                    {
                                        OFFSET  -1.858760   0.000000   0.000000
                                        CHANNELS 3 Zrotation Xrotation Yrotation
                                        End Site
                                        {
                                            OFFSET  -1.818440   0.000000   0.000000
                                        }
                                    }
                                }
                            }
                        }
                    }
                }
            }
        }
    }
    JOINT LeftHip
    {
        OFFSET   9.783010   0.000000   0.000000
        CHANNELS 3 Zrotation Xrotation Yrotation
        JOINT LeftKnee
        {
            OFFSET   0.000073 -41.789100   0.001749
            CHANNELS 3 Zrotation Xrotation Yrotation
            JOINT LeftAnkle
            {
                OFFSET   0.000111 -41.133200  -0.000179
                CHANNELS 3 Zrotation Xrotation Yrotation
                JOINT LeftToe
                {
                    OFFSET   0.000000  -6.358960  14.674500
                    CHANNELS 3 Zrotation Xrotation Yrotation
                    End Site
                    {
                        OFFSET   0.000000   0.000000   3.913200
                    }
                }
            }
        }
    }
    JOINT RightHip
    {
        OFFSET  -9.783010   0.000000   0.000000
        CHANNELS 3 Zrotation Xrotation Yrotation
        JOINT RightKnee
        {
            OFFSET   0.000424 -41.789200   0.005205
            CHANNELS 3 Zrotation Xrotation Yrotation
            JOINT RightAnkle
            {
                OFFSET   0.000000 -41.133200  -0.000155
                CHANNELS 3 Zrotation Xrotation Yrotation
                JOINT RightToe
                {
                    OFFSET   0.000000  -6.358960  14.674500
                    CHANNELS 3 Zrotation Xrotation Yrotation
                    End Site
                    {
                        OFFSET   0.000000   0.000000   3.913200
                    }
                }
            }
        }
    }
}
MOTION
Frames: 4
Frame Time:   0.016667
  0.107279  89.575100   1.459150  -3.582270 -17.148800  -3.082040   4.350530  11.976300  -3.539690   9.791210  23.611200  -8.295210   3.825510   2.871770  -0.191850   6.328310   5.745710  21.994800   2.634840  -2.508790   6.331380  -4.353010 -17.060200 -47.016600  37.970400  -8.036030 -80.244700 -16.926900 -18.437400 -18.080900  16.322800  35.239200 -56.186000 -83.944300   0.000000  -0.000521 -49.247000  -0.002438   0.002709 -43.493900  11.502900 -11.846000 -36.568000   0.002190   0.013150 -26.533000   0.002019   0.011009  -8.608650   2.597050 -16.575900  -8.981800  -0.008068  -0.010131  -5.981880  -0.004506  -0.001160 -84.046000  -4.981810   0.518630 -84.068700   0.001614  -0.002451 -63.051500  -0.000986   0.002033 -76.458900  -9.729220   2.330300 -110.000000   0.002883  -0.000528 -76.580600  -0.000388  -0.000217   7.633420  -0.608776   9.631360  66.720700  11.162800   4.486640   0.168545 -10.808500  14.719700 -16.828800 -12.514700   4.983050 -38.575300  28.516500  66.067000  26.004300   0.001413  -0.002881   8.002120   0.002948  -0.000790  31.697300   9.479160  14.932300  26.952800  -0.000361  -0.001585  18.867000   0.001047  -0.003566  28.780200   3.413770   6.187190  43.446200   0.002657  -0.005654  28.936300   0.001727  -0.002127  28.502500   2.031480   3.735390  36.946900  -0.003712  -0.001363  24.605300  -0.002484  -0.002323  37.793100  -0.458494  -0.593966  56.693300  -0.001013  -0.003026  37.757700  -0.002371   0.003756   1.979390  19.299500   6.072880   1.240150   0.106710   4.158540  -1.529410  -2.905560   0.284950  -0.000000   0.000000  -0.000000   3.113790  18.858100   0.635748  -0.531000   1.897690  -7.037100  -1.036490  -4.400510  -0.126367   0.000000   0.000000   0.000000
  0.104450  89.574300   1.489560  -3.619470 -17.140200  -3.178420   4.356730  11.991500  -3.600260   9.819250  23.635400  -8.423650   3.815890   2.748350  -0.183176   6.307750   5.499240  21.934600   2.666360  -2.449860   6.379220  -4.423520 -17.190200 -47.411200  37.892900  -7.888580 -80.213100 -16.468600 -18.442100 -18.074700  16.391000  35.482700 -56.287000 -83.959800   0.000000  -0.000435 -49.257300  -0.002437   0.002725 -42.493600  11.500000 -12.252500 -35.782400   0.002081   0.014992 -25.705900   0.002023   0.013664 -10.699200   3.233880 -16.454200 -11.394300   0.000794  -0.007044  -7.588560   0.001703  -0.000793 -84.051300  -4.981890   0.518000 -84.074000   0.001636  -0.002403 -63.055400  -0.001020   0.002061 -76.421100  -9.726960   2.336310 -110.000000   0.002914  -0.000536 -76.543400  -0.000329  -0.000217   7.661080  -0.616920   9.644540  66.687500  11.177300   4.529740   0.166732 -10.791100  14.756800 -16.838700 -12.523800   4.994570 -38.587000  28.531900  66.090600  25.980300   0.001394  -0.002845   7.990150   0.002948  -0.000787  31.724200   9.484040  14.927500  26.975200  -0.000315  -0.001584  18.882700   0.001041  -0.003545  28.782300   3.405250   6.171530  43.447200   0.002596  -0.005686  28.936800   0.001680  -0.002127  28.504700   2.021950   3.717900  36.945700  -0.003704  -0.001395  24.605400  -0.002497  -0.002378  37.804100  -0.460709  -0.595503  56.708900  -0.001022  -0.002991  37.768700  -0.002360   0.003733   1.993230  19.328900   6.105150   1.240100   0.103564   4.213340  -1.535460  -2.932070   0.287658  -0.000000   0.000000  -0.000000   3.106270  18.850100   0.637330  -0.513428   1.910230  -6.974320  -1.044600  -4.400550  -0.094861  -0.000000   0.000000  -0.000000
  0.101628  89.573800   1.519540  -3.655770 -17.134000  -3.272460   4.364510  12.008400  -3.664770   9.851660  23.662300  -8.560780   3.798560   2.622230  -0.174046   6.276510   5.247470  21.901500   2.696860  -2.394000   6.440270  -4.502880 -17.329100 -47.830000  37.806600  -7.718680 -80.193100 -16.016900 -18.472400 -18.055300  16.430900  35.628900 -56.347100 -83.973600   0.000000  -0.000245 -49.266500  -0.002435   0.002740 -41.033700  11.481200 -12.854400 -34.637200   0.002026   0.016306 -24.602300   0.002050   0.016648 -13.433000   3.915170 -15.905900 -14.140200   0.010048   0.000392  -9.417350   0.005895   0.001418 -84.088200  -4.981970   0.513590 -84.110700   0.001659  -0.002357 -63.083000  -0.001056   0.002092 -76.407600  -9.725570   2.338330 -110.000000   0.002946  -0.000545 -76.530000  -0.000269  -0.000216   7.688530  -0.623997   9.672100  66.648300  11.190700   4.573830   0.163840 -10.767700  14.799900 -16.852000 -12.533900   5.003730 -38.606800  28.545900  66.110900  25.963800   0.001374  -0.002803   7.981910   0.002949  -0.000783  31.742900   9.485680  14.916600  26.989800  -0.000270  -0.001583  18.892900   0.001036  -0.003523  28.787000   3.393070   6.147980  43.453900   0.002536  -0.005719  28.940300   0.001632  -0.002126  28.507400   2.008450   3.693010  36.945400  -0.003696  -0.001426  24.605700  -0.002509  -0.002432  37.811900  -0.463023  -0.597233  56.721500  -0.001030  -0.002956  37.776500  -0.002349   0.003710   2.006300  19.368300   6.143120   1.239990   0.086897   4.259390  -1.540380  -2.948250   0.290852   0.000000   0.000000   0.000000   3.101860  18.844300   0.638380  -0.503858   1.925330  -6.913500  -1.052230  -4.400820  -0.065120  -0.000000   0.000000   0.000000
  0.097004  89.573300   1.547130  -3.692400 -17.124800  -3.366450   4.373640  12.026900  -3.731170   9.888660  23.692300  -8.702540   3.779430   2.490560  -0.164457   6.241270   4.984480  21.885100   2.723450  -2.348040   6.510210  -4.569890 -17.473900 -48.257100  37.736400  -7.549310 -80.199300 -15.557100 -18.616100 -17.992000  16.418800  35.500500 -56.312700 -83.991400   0.000000   0.000094 -49.278300  -0.002426   0.002751 -38.856500  11.403400 -13.764900 -32.925200   0.005672   0.017187 -23.163200   0.002098   0.019004 -17.690900   4.760870 -14.663600 -16.834300   0.017104   0.016587 -11.207200   0.006012   0.012378 -84.234200  -4.982070   0.500542 -84.256100   0.001684  -0.002305 -63.192000  -0.001092   0.002120 -76.515900  -9.729850   2.320140 -110.000000   0.002984  -0.000561 -76.636700  -0.000218  -0.000211   7.715880  -0.629181   9.709990  66.596700  11.219200   4.626360   0.159799 -10.758600  14.839500 -16.866700 -12.549500   5.008280 -38.599700  28.533700  66.108300  25.959100   0.001363  -0.002746   7.979560   0.002950  -0.000778  31.745200   9.477260  14.900800  26.989900  -0.000242  -0.001586  18.892900   0.001043  -0.003499  28.797000   3.386910   6.134120  43.469200   0.002475  -0.005755  28.950100   0.001585  -0.002126  28.509500   1.999450   3.676230  36.958500  -0.003688  -0.001456  24.614500  -0.002518  -0.002482  37.811600  -0.464466  -0.598707  56.722700  -0.001041  -0.002924  37.776200  -0.002338   0.003686   2.016790  19.419400   6.187150   1.239460   0.035944   4.289830  -1.543780  -2.952590   0.305399   0.000000   0.000000   0.000000   3.110000  18.834300   0.636432  -0.506651   1.946100  -6.853280  -1.059320  -4.402190  -0.035299  -0.000000   0.000000  -0.000000
